# xmcd CD database file
#
# Track frame offsets:
#	150
#	20428
#	41482
#	62651
#	85894
#	103964
#	123424
#	145076
#	165729
#	185419
#
# Disc length: 2726 seconds
#
# Revision: 0
# Processed by: cddbd v1.5PL3 Copyright (c) Steve Scherf et al.
# Submitted via: CDex 1.51
#
DISCID=840aa40a
DTITLE=Various Artist - Salsa Power 2
DYEAR=2002
DGENRE=Salsa
TTITLE0=Tito Rojas - Cuanto te quiero
TTITLE1=Victor Manuel - Como se lo explico al corazón
TTITLE2=Pedro Conga - Eso me gusta
TTITLE3=Pedro jesus - Yo no supe amarla
TTITLE4=Huey Dunbar - Yo si me enamore
TTITLE5=Anthony Cruz - Bla, bla, bla
TTITLE6=Giro - Mi nostalgia
TTITLE7=Tito Gomez - Liora
TTITLE8=Los Hijos de los celebres - Bajo un palmar
TTITLE9=Gilberto Santa Rosa - La agarro bajando
EXTD=YEAR: 2002
EXTT0=
EXTT1=
EXTT2=
EXTT3=
EXTT4=
EXTT5=
EXTT6=
EXTT7=
EXTT8=
EXTT9=
PLAYORDER=
